<svg viewBox="0 0 100 100" xmlns="http://www.w3.org/2000/svg">
  <!-- pins -->
  <g fill="#D4A038">
    <rect x="14" y="32" width="8" height="4"/>
    <rect x="14" y="48" width="8" height="4"/>
    <rect x="14" y="64" width="8" height="4"/>
    <rect x="78" y="32" width="8" height="4"/>
    <rect x="78" y="48" width="8" height="4"/>
    <rect x="78" y="64" width="8" height="4"/>
    <rect x="32" y="14" width="4" height="8"/>
    <rect x="48" y="14" width="4" height="8"/>
    <rect x="64" y="14" width="4" height="8"/>
    <rect x="32" y="78" width="4" height="8"/>
    <rect x="48" y="78" width="4" height="8"/>
    <rect x="64" y="78" width="4" height="8"/>
  </g>
  <!-- chip body -->
  <rect x="22" y="22" width="56" height="56" rx="4" fill="#1B5E20"/>
  <rect x="26" y="26" width="48" height="48" rx="2" fill="#2E7D32"/>
  <!-- circuit traces -->
  <g stroke="#A5D6A7" stroke-width="1.5" fill="none" opacity="0.8">
    <path d="M30,40 L42,40 L42,52"/>
    <path d="M70,40 L58,40 L58,52"/>
    <path d="M30,62 L46,62"/>
    <path d="M70,62 L54,62"/>
  </g>
  <!-- core -->
  <rect x="38" y="38" width="24" height="24" rx="2" fill="#0D3D11"/>
  <text x="50" y="58" text-anchor="middle" font-family="'Courier New',monospace" font-weight="700" font-size="14" fill="#A5D6A7">ASM</text>
</svg>
