<svg viewBox="0 0 100 100" xmlns="http://www.w3.org/2000/svg">
  <!-- gear teeth -->
  <g fill="#2D2A28">
    <circle cx="50" cy="50" r="42"/>
  </g>
  <g fill="#3C3936">
    <rect x="46" y="2" width="8" height="14"/>
    <rect x="46" y="84" width="8" height="14"/>
    <rect x="2" y="46" width="14" height="8"/>
    <rect x="84" y="46" width="14" height="8"/>
    <rect x="46" y="2" width="8" height="14" transform="rotate(45 50 50)"/>
    <rect x="46" y="2" width="8" height="14" transform="rotate(-45 50 50)"/>
    <rect x="2" y="46" width="14" height="8" transform="rotate(45 50 50)"/>
    <rect x="2" y="46" width="14" height="8" transform="rotate(-45 50 50)"/>
  </g>
  <circle cx="50" cy="50" r="36" fill="#000"/>
  <circle cx="50" cy="50" r="32" fill="#2D2A28"/>
  <!-- bolt holes -->
  <g fill="#000">
    <circle cx="50" cy="22" r="3"/>
    <circle cx="50" cy="78" r="3"/>
    <circle cx="22" cy="50" r="3"/>
    <circle cx="78" cy="50" r="3"/>
  </g>
  <text x="50" y="64" text-anchor="middle" font-family="'Helvetica Neue',Arial,sans-serif" font-weight="700" font-size="36" fill="#fff">R</text>
</svg>
