<svg viewBox="0 0 100 100" xmlns="http://www.w3.org/2000/svg">
  <defs>
    <radialGradient id="bg" cx="50%" cy="40%" r="65%">
      <stop offset="0%" stop-color="#1a2847"/>
      <stop offset="100%" stop-color="#050912"/>
    </radialGradient>
  </defs>
  <rect width="100" height="100" rx="10" fill="url(#bg)"/>
  <!-- faint stars -->
  <circle cx="14" cy="16" r="0.8" fill="white" opacity="0.7"/>
  <circle cx="86" cy="22" r="0.6" fill="white" opacity="0.5"/>
  <circle cx="10" cy="78" r="0.7" fill="white" opacity="0.6"/>
  <circle cx="90" cy="88" r="0.8" fill="white" opacity="0.7"/>
  <circle cx="78" cy="12" r="0.5" fill="white" opacity="0.4"/>
  <circle cx="22" cy="90" r="0.5" fill="white" opacity="0.4"/>
  <defs>
    <radialGradient id="mep" cx="35%" cy="35%" r="70%">
      <stop offset="0%" stop-color="#BDBDBD"/>
      <stop offset="60%" stop-color="#757575"/>
      <stop offset="100%" stop-color="#212121"/>
    </radialGradient>
  </defs>
  <circle cx="50" cy="50" r="32" fill="url(#mep)"/>
  <!-- craters -->
  <clipPath id="mec"><circle cx="50" cy="50" r="32"/></clipPath>
  <g clip-path="url(#mec)">
    <circle cx="38" cy="38" r="9" fill="#616161"/>
    <circle cx="38" cy="38" r="7" fill="#424242"/>
    <circle cx="60" cy="54" r="6" fill="#616161"/>
    <circle cx="60" cy="54" r="4.5" fill="#424242"/>
    <circle cx="44" cy="62" r="5" fill="#616161"/>
    <circle cx="44" cy="62" r="3.5" fill="#424242"/>
    <circle cx="58" cy="34" r="3" fill="#616161"/>
    <circle cx="58" cy="34" r="2" fill="#424242"/>
    <circle cx="32" cy="56" r="2.5" fill="#616161"/>
    <circle cx="68" cy="44" r="2" fill="#424242"/>
  </g>
</svg>