<svg viewBox="0 0 100 100" xmlns="http://www.w3.org/2000/svg">
  <defs>
    <radialGradient id="nb1" cx="50%" cy="50%" r="50%">
      <stop offset="0%"   stop-color="#E91E63" stop-opacity="0.85"/>
      <stop offset="100%" stop-color="#E91E63" stop-opacity="0"/>
    </radialGradient>
    <radialGradient id="nb2" cx="50%" cy="50%" r="50%">
      <stop offset="0%"   stop-color="#7B1FA2" stop-opacity="0.85"/>
      <stop offset="100%" stop-color="#7B1FA2" stop-opacity="0"/>
    </radialGradient>
    <radialGradient id="nb3" cx="50%" cy="50%" r="50%">
      <stop offset="0%"   stop-color="#0288D1" stop-opacity="0.85"/>
      <stop offset="100%" stop-color="#0288D1" stop-opacity="0"/>
    </radialGradient>
    <radialGradient id="nb4" cx="50%" cy="50%" r="50%">
      <stop offset="0%"   stop-color="#FF9800" stop-opacity="0.7"/>
      <stop offset="100%" stop-color="#FF9800" stop-opacity="0"/>
    </radialGradient>
    <radialGradient id="nstar" cx="50%" cy="50%" r="50%">
      <stop offset="0%"   stop-color="#FFFFFF" stop-opacity="1"/>
      <stop offset="60%"  stop-color="#FFEB3B" stop-opacity="0.7"/>
      <stop offset="100%" stop-color="#FFEB3B" stop-opacity="0"/>
    </radialGradient>
  </defs>

  <!-- layered gas clouds -->
  <ellipse cx="42" cy="44" rx="34" ry="26" fill="url(#nb2)"/>
  <ellipse cx="58" cy="38" rx="26" ry="22" fill="url(#nb3)"/>
  <ellipse cx="48" cy="60" rx="28" ry="20" fill="url(#nb1)"/>
  <ellipse cx="62" cy="58" rx="20" ry="16" fill="url(#nb4)"/>

  <!-- bright stars with halos -->
  <circle cx="50" cy="48" r="7" fill="url(#nstar)"/>
  <circle cx="50" cy="48" r="2.2" fill="#FFFFFF"/>
  <circle cx="38" cy="38" r="5" fill="url(#nstar)"/>
  <circle cx="38" cy="38" r="1.4" fill="#FFFFFF"/>
  <circle cx="64" cy="56" r="3" fill="url(#nstar)"/>
  <circle cx="64" cy="56" r="1.1" fill="#FFFFFF"/>
  <circle cx="58" cy="68" r="2.4" fill="url(#nstar)"/>
  <circle cx="58" cy="68" r="0.9" fill="#FFFFFF"/>
  <circle cx="32" cy="58" r="2" fill="url(#nstar)"/>
  <circle cx="32" cy="58" r="0.7" fill="#FFFFFF"/>
</svg>
