<svg viewBox="0 0 100 100" xmlns="http://www.w3.org/2000/svg">
  <defs>
    <radialGradient id="bg" cx="50%" cy="40%" r="65%">
      <stop offset="0%" stop-color="#1a2847"/>
      <stop offset="100%" stop-color="#050912"/>
    </radialGradient>
  </defs>
  <rect width="100" height="100" rx="0" fill="url(#bg)"/>
  <!-- faint stars -->
  <circle cx="14" cy="16" r="0.8" fill="white" opacity="0.7"/>
  <circle cx="86" cy="22" r="0.6" fill="white" opacity="0.5"/>
  <circle cx="10" cy="78" r="0.7" fill="white" opacity="0.6"/>
  <circle cx="90" cy="88" r="0.8" fill="white" opacity="0.7"/>
  <circle cx="78" cy="12" r="0.5" fill="white" opacity="0.4"/>
  <circle cx="22" cy="90" r="0.5" fill="white" opacity="0.4"/>
  <defs>
    <radialGradient id="nb1" cx="50%" cy="50%" r="50%">
      <stop offset="0%" stop-color="#E91E63" stop-opacity="0.7"/>
      <stop offset="100%" stop-color="#E91E63" stop-opacity="0"/>
    </radialGradient>
    <radialGradient id="nb2" cx="50%" cy="50%" r="50%">
      <stop offset="0%" stop-color="#7B1FA2" stop-opacity="0.7"/>
      <stop offset="100%" stop-color="#7B1FA2" stop-opacity="0"/>
    </radialGradient>
    <radialGradient id="nb3" cx="50%" cy="50%" r="50%">
      <stop offset="0%" stop-color="#0288D1" stop-opacity="0.7"/>
      <stop offset="100%" stop-color="#0288D1" stop-opacity="0"/>
    </radialGradient>
    <radialGradient id="nb4" cx="50%" cy="50%" r="50%">
      <stop offset="0%" stop-color="#FF9800" stop-opacity="0.5"/>
      <stop offset="100%" stop-color="#FF9800" stop-opacity="0"/>
    </radialGradient>
  </defs>
  <!-- layered gas clouds -->
  <ellipse cx="42" cy="44" rx="34" ry="26" fill="url(#nb2)"/>
  <ellipse cx="58" cy="38" rx="26" ry="22" fill="url(#nb3)"/>
  <ellipse cx="48" cy="60" rx="28" ry="20" fill="url(#nb1)"/>
  <ellipse cx="62" cy="58" rx="20" ry="16" fill="url(#nb4)"/>
  <!-- bright stars within the nebula -->
  <circle cx="50" cy="48" r="2.5" fill="white"/>
  <circle cx="50" cy="48" r="6" fill="white" opacity="0.2"/>
  <circle cx="38" cy="38" r="1.5" fill="white"/>
  <circle cx="38" cy="38" r="4" fill="white" opacity="0.2"/>
  <circle cx="64" cy="56" r="1.2" fill="white"/>
  <circle cx="58" cy="68" r="1" fill="white"/>
  <circle cx="32" cy="58" r="0.8" fill="white" opacity="0.8"/>
</svg>