<svg viewBox="0 0 100 100" xmlns="http://www.w3.org/2000/svg">
  <defs>
    <radialGradient id="bg" cx="50%" cy="40%" r="65%">
      <stop offset="0%" stop-color="#1a2847"/>
      <stop offset="100%" stop-color="#050912"/>
    </radialGradient>
  </defs>
  <rect width="100" height="100" rx="0" fill="url(#bg)"/>
  <!-- faint stars -->
  <circle cx="14" cy="16" r="0.8" fill="white" opacity="0.7"/>
  <circle cx="86" cy="22" r="0.6" fill="white" opacity="0.5"/>
  <circle cx="10" cy="78" r="0.7" fill="white" opacity="0.6"/>
  <circle cx="90" cy="88" r="0.8" fill="white" opacity="0.7"/>
  <circle cx="78" cy="12" r="0.5" fill="white" opacity="0.4"/>
  <circle cx="22" cy="90" r="0.5" fill="white" opacity="0.4"/>
  <defs>
    <linearGradient id="rb" x1="0%" y1="0%" x2="100%" y2="0%">
      <stop offset="0%" stop-color="#bdbdbd"/>
      <stop offset="50%" stop-color="white"/>
      <stop offset="100%" stop-color="#9e9e9e"/>
    </linearGradient>
    <linearGradient id="rf" x1="0%" y1="0%" x2="0%" y2="100%">
      <stop offset="0%" stop-color="#FFEB3B"/>
      <stop offset="50%" stop-color="#FF9800"/>
      <stop offset="100%" stop-color="#E91E63"/>
    </linearGradient>
  </defs>
  <!-- flame -->
  <path d="M44,72 Q50,96 56,72 Q53,84 50,88 Q47,84 44,72Z" fill="url(#rf)"/>
  <!-- body -->
  <path d="M40,30 Q40,16 50,8 Q60,16 60,30 L60,68 L40,68 Z" fill="url(#rb)"/>
  <!-- window -->
  <circle cx="50" cy="34" r="7" fill="#1565c0"/>
  <circle cx="50" cy="34" r="7" fill="none" stroke="#90caf9" stroke-width="1.5"/>
  <circle cx="48" cy="32" r="2.5" fill="white" opacity="0.7"/>
  <!-- mid stripe -->
  <rect x="40" y="48" width="20" height="3" fill="#E53935"/>
  <!-- fins -->
  <path d="M40,58 L28,72 L40,68 Z" fill="#E53935"/>
  <path d="M60,58 L72,72 L60,68 Z" fill="#E53935"/>
</svg>